<svg xmlns="http://www.w3.org/2000/svg" viewBox="0 0 192 192"><defs><style>.cls-1{isolation:isolate;}.cls-2{fill:#fff;}.cls-3{mix-blend-mode:multiply;}.cls-4{fill:#6598cb;}.cls-5{fill:#369;}.cls-6{fill:#3298cb;}</style></defs><title>S_Logo</title><g class="cls-1"><g id="Layer_3" data-name="Layer 3"><rect class="cls-2" x="-40.68" y="-21.79" width="294.64" height="264"/></g><g id="Layer_2" data-name="Layer 2"><g class="cls-3"><path class="cls-4" d="M136.73,93.56c-4-4.71-28.07-5.68-41.94-10.25C79.14,78.15,80.58,84.42,78.7,91s9.28,16,24.93,21.16c14.52,4.79,29.4-7.93,33-15A4.58,4.58,0,0,1,136.73,93.56Z"/></g><path class="cls-5" d="M136.73,93.56c-4-4.71-28.07-5.68-41.94-10.25C79.14,78.15,80.58,84.42,78.7,91s9.28,16,24.93,21.16c14.52,4.79,29.4-7.93,33-15A4.58,4.58,0,0,1,136.73,93.56Z"/><path id="SlideTopBlue" class="cls-6" d="M138.05,38.64c.75.24,4.1,25.08-6,32.39-7.47,5.41-16.41,11.15-24.93,14.29-4.4,1.62-9.54,4.87-11.49,9.38a17.2,17.2,0,0,0-1,6.24c-.16,4.49.33,3.74.17,8.23C91,110,69,113.57,59,90.93c-1-2.4-10-25.31-.92-29.68C60,60.31,124.85,34.35,138.05,38.64Z"/><path id="SlideBottomBlue" class="cls-6" d="M136.13,93.26c-17.07,9.37-51.69,12.45-72.42,26.27-3.94,2.62-23.16,37.1-19.15,39.14,2.89,1.47,42.23-2.7,49.65-3.83,27.35-4.13,41.59-15.25,44.37-40.42C139,110.33,138.27,92.09,136.13,93.26Z"/></g></g></svg>